<?xml version="1.0" encoding="utf-8"?>
<!-- Generator: Adobe Illustrator 22.1.0, SVG Export Plug-In . SVG Version: 6.00 Build 0)  -->
<svg version="1.1" baseProfile="basic" id="Layer_1"
	 xmlns="http://www.w3.org/2000/svg" xmlns:xlink="http://www.w3.org/1999/xlink" x="0px" y="0px" viewBox="0 0 302 302"
	 xml:space="preserve">
<style type="text/css">
	.st0{fill:none;stroke:#32B7F4;stroke-width:20;stroke-linecap:round;stroke-miterlimit:10;}
	.st1{fill:none;stroke:#FF702A;stroke-width:20;stroke-linecap:round;stroke-linejoin:round;stroke-miterlimit:10;}
	.st2{fill:#CC5A21;}
	.st3{fill:#FF702A;}
	.st4{fill:none;stroke:#FF702A;stroke-width:23.9881;stroke-linecap:round;stroke-linejoin:round;stroke-miterlimit:10;}
	.st5{fill:none;stroke:#FF702A;stroke-width:24.1604;stroke-linecap:round;stroke-linejoin:round;stroke-miterlimit:10;}
	.st6{fill:none;}
	.st7{fill:none;stroke:#FF702A;stroke-width:21.1822;stroke-linecap:round;stroke-linejoin:round;stroke-miterlimit:10;}
	.st8{fill:none;stroke:#FF702A;stroke-width:16.1986;stroke-linecap:round;stroke-linejoin:round;stroke-miterlimit:10;}
	.st9{fill:none;stroke:#FF702A;stroke-width:20;stroke-miterlimit:10;}
	.st10{fill:#3E991B;}
	.st11{fill:none;stroke:#FC9109;stroke-width:19.2365;stroke-linecap:round;stroke-linejoin:round;stroke-miterlimit:10;}
	.st12{fill:#FC9109;}
	.st13{fill:none;stroke:#F87029;stroke-width:20;stroke-linecap:round;stroke-miterlimit:10;}
	.st14{fill:none;stroke:#32B7F4;stroke-width:20;stroke-linecap:round;stroke-linejoin:round;stroke-miterlimit:10;}
	.st15{fill:none;stroke:#FF702A;stroke-width:20;stroke-linecap:round;stroke-miterlimit:10;}
	.st16{fill:none;stroke:#FF702A;stroke-width:16;stroke-linecap:round;stroke-linejoin:round;stroke-miterlimit:10;}
	.st17{fill:#F87029;}
	.st18{fill:none;stroke:#FF702A;stroke-width:1.4259;stroke-miterlimit:10;}
	.st19{fill:#FFFFFF;}
</style>
<g>
	<rect x="3.9" y="1" class="st6" width="300" height="300"/>
	<g>
		<path class="st19" d="M156.3,70.7h-4.8c-15.2,0-27.6-12.4-27.6-27.6v-4.8c0-15.2,12.4-27.6,27.6-27.6h4.8
			c15.2,0,27.6,12.4,27.6,27.6v4.8C183.9,58.2,171.5,70.7,156.3,70.7z"/>
		<path class="st19" d="M156.3,181h-4.8c-15.2,0-27.6-12.4-27.6-27.6v-4.8c0-15.2,12.4-27.6,27.6-27.6h4.8
			c15.2,0,27.6,12.4,27.6,27.6v4.8C183.9,168.6,171.5,181,156.3,181z"/>
		<path class="st19" d="M156.3,291.3h-4.8c-15.2,0-27.6-12.4-27.6-27.6v-4.8c0-15.2,12.4-27.6,27.6-27.6h4.8
			c15.2,0,27.6,12.4,27.6,27.6v4.8C183.9,278.9,171.5,291.3,156.3,291.3z"/>
	</g>
</g>
<g>
	<g>
		<rect x="3.9" y="1" class="st6" width="300" height="300"/>
	</g>
	<g>
		<path class="st3" d="M3.9,151c82.9,106.7,217.1,106.7,300,0C221,44.3,86.8,44.3,3.9,151z"/>
		<path class="st19" d="M153.9,196c-24.8,0-45-20.2-45-45s20.2-45,45-45s45,20.2,45,45S178.7,196,153.9,196z M153.9,121
			c-16.5,0-30,13.5-30,30s13.5,30,30,30s30-13.5,30-30S170.4,121,153.9,121z"/>
	</g>
</g>
</svg>
