<?xml version="1.0" encoding="utf-8"?>
<!-- Generator: Adobe Illustrator 22.1.0, SVG Export Plug-In . SVG Version: 6.00 Build 0)  -->
<svg version="1.1" id="Layer_1" xmlns="http://www.w3.org/2000/svg" xmlns:xlink="http://www.w3.org/1999/xlink" x="0px" y="0px"
	 viewBox="0 0 302 302" style="enable-background:new 0 0 302 302;" xml:space="preserve">
<style type="text/css">
	.st0{fill:none;stroke:#32B7F4;stroke-width:20;stroke-linecap:round;stroke-miterlimit:10;}
	.st1{fill:none;stroke:#FF702A;stroke-width:20;stroke-linecap:round;stroke-linejoin:round;stroke-miterlimit:10;}
	.st2{fill:#FF702A;}
	.st3{fill:none;stroke:#FF702A;stroke-width:23.9881;stroke-linecap:round;stroke-linejoin:round;stroke-miterlimit:10;}
	.st4{fill:none;stroke:#FF702A;stroke-width:24.1604;stroke-linecap:round;stroke-linejoin:round;stroke-miterlimit:10;}
	.st5{fill:none;}
	.st6{fill:none;stroke:#FF702A;stroke-width:21.1822;stroke-linecap:round;stroke-linejoin:round;stroke-miterlimit:10;}
	.st7{fill:none;stroke:#FF702A;stroke-width:16.1986;stroke-linecap:round;stroke-linejoin:round;stroke-miterlimit:10;}
	.st8{fill:none;stroke:#FF702A;stroke-width:20;stroke-miterlimit:10;}
	.st9{fill:#3E991B;}
	.st10{fill:none;stroke:#FC9109;stroke-width:19.2365;stroke-linecap:round;stroke-linejoin:round;stroke-miterlimit:10;}
	.st11{fill:#FC9109;}
</style>
<path class="st0" d="M-2212.2,428.8"/>
<g>
	<path class="st1" d="M-1912-164.7v-49h-31.7c-3.1-15.2-9.1-29.3-17.3-41.8l22.4-22.4l-34.7-34.7l-22.4,22.4
		c-12.5-8.2-26.6-14.2-41.8-17.3v-31.7h-49v31.7c-14.4,3-29.3,9.1-41.8,17.3l-22.4-22.4l-34.7,34.7l22.4,22.4
		c-8.2,12.5-14.2,26.6-17.3,41.8h-31.7v49h31.7c3.1,15.2,9.1,29.3,17.3,41.8l-22.4,22.4l34.7,34.7l22.4-22.4
		c12.5,8.2,24.5,13.2,41.8,17.3v31.7h49v-31.7c15.2-3.1,29.3-9.1,41.8-17.3l22.4,22.4l34.7-34.7l-22.4-22.4
		c8.2-12.5,14.2-26.6,17.3-41.8H-1912z"/>
	<circle class="st1" cx="-2062" cy="-189.2" r="61.1"/>
</g>
<g>
	<path class="st2" d="M-2025.6,1549.9h-46.5c-4.2,0-7.6-3.4-7.6-7.6v-24.2c-12-3.3-21.6-7.2-31-12.7l-17,17c-3,3-7.8,3-10.7,0
		l-32.9-32.9c-3-3-3-7.8,0-10.7l17-17c-5.7-9.7-10-20.1-12.8-31h-24.1c-4.2,0-7.6-3.4-7.6-7.6v-46.5c0-4.2,3.4-7.6,7.6-7.6h24.1
		c2.8-10.9,7.1-21.3,12.8-31l-17-17c-3-3-3-7.8,0-10.7l32.9-32.9c3-3,7.8-3,10.7,0l17,17c9.5-5.5,20.2-9.9,31-12.8v-24.1
		c0-4.2,3.4-7.6,7.6-7.6h46.5c4.2,0,7.6,3.4,7.6,7.6v24.1c10.9,2.8,21.3,7.1,31,12.8l17-17c3-3,7.8-3,10.7,0l32.9,32.9
		c3,3,3,7.8,0,10.7l-17,17c5.7,9.7,10,20.1,12.8,31h24.1c4.2,0,7.6,3.4,7.6,7.6v46.5c0,4.2-3.4,7.6-7.6,7.6h-24.1
		c-2.8,10.9-7.1,21.3-12.8,31l17,17c3,3,3,7.8,0,10.7l-32.9,32.9c-3,3-7.8,3-10.7,0l-17-17c-9.7,5.7-20.1,10-31,12.8v24.1
		C-2018.1,1546.5-2021.5,1549.9-2025.6,1549.9z M-2064.6,1534.8h31.3v-22.5c0-3.6,2.5-6.7,6.1-7.4c13.2-2.7,25.7-7.9,37-15.4
		c3-2,7-1.6,9.5,1l15.9,15.9l22.2-22.2l-15.9-15.9c-2.5-2.5-3-6.5-1-9.5c7.5-11.3,12.6-23.8,15.4-37c0.7-3.5,3.8-6.1,7.4-6.1h22.5
		v-31.3h-22.5c-3.6,0-6.7-2.5-7.4-6.1c-2.7-13.2-7.9-25.7-15.4-37c-2-3-1.6-7,1-9.5l15.9-15.9l-22.2-22.2l-15.9,15.9
		c-2.5,2.5-6.5,3-9.5,1c-11.3-7.5-23.8-12.6-37-15.4c-3.5-0.7-6.1-3.8-6.1-7.4v-22.5h-31.3v22.5c0,3.6-2.5,6.7-6,7.4
		c-13.1,2.8-26.2,8.2-37.1,15.4c-3,2-7,1.6-9.5-1l-15.9-15.9l-22.2,22.2l15.9,15.9c2.5,2.5,3,6.5,1,9.5c-7.5,11.3-12.6,23.8-15.4,37
		c-0.7,3.5-3.8,6.1-7.4,6.1h-22.5v31.3h22.5c3.6,0,6.7,2.5,7.4,6.1c2.7,13.2,7.9,25.7,15.4,37c2,3,1.6,7-1,9.5l-15.9,15.9l22.2,22.2
		l15.9-15.9c2.5-2.5,6.5-3,9.5-1c11.2,7.4,21.6,11.7,37.3,15.4c3.4,0.8,5.8,3.9,5.8,7.4V1534.8z"/>
	<path class="st2" d="M-2048.9,1465.6c-36.2,0-65.6-29.4-65.6-65.6s29.4-65.6,65.6-65.6c36.2,0,65.6,29.4,65.6,65.6
		S-2012.7,1465.6-2048.9,1465.6z M-2048.9,1349.5c-27.8,0-50.4,22.6-50.4,50.4c0,27.8,22.6,50.4,50.4,50.4
		c27.8,0,50.4-22.6,50.4-50.4C-1998.5,1372.1-2021.1,1349.5-2048.9,1349.5z"/>
</g>
<g>
	<path class="st1" d="M-1465.7-164.7v-49h-31.7c-3.1-15.2-9.1-29.3-17.3-41.8l22.4-22.4l-34.7-34.7l-22.4,22.4
		c-12.5-8.2-26.6-14.2-41.8-17.3v-31.7h-49v31.7c-14.4,3-29.3,9.1-41.8,17.3l-22.4-22.4l-34.7,34.7l22.4,22.4
		c-8.2,12.5-14.2,26.6-17.3,41.8h-31.7v49h31.7c3.1,15.2,9.1,29.3,17.3,41.8l-22.4,22.4l34.7,34.7l22.4-22.4
		c12.5,8.2,24.5,13.2,41.8,17.3v31.7h49v-31.7c15.2-3.1,29.3-9.1,41.8-17.3l22.4,22.4l34.7-34.7l-22.4-22.4
		c8.2-12.5,14.2-26.6,17.3-41.8H-1465.7z"/>
	<path class="st1" d="M-1545-226.5c4.3,9.9,6.7,20.8,6.7,32.3c0,44.7-36.3,81-81,81c-24.8,0-47-11.1-61.8-28.6"/>
	<path class="st1" d="M-1554.5-242.8c3.8,5,7,10.5,9.5,16.3"/>
	<circle class="st1" cx="-1615.7" cy="-189.2" r="35.4"/>
</g>
<g>
	<path class="st2" d="M-1589.1,1566.8h-49c-4.4,0-8-3.6-8-8v-25.5c-12.7-3.4-22.7-7.6-32.6-13.4l-17.9,17.9c-3.1,3.1-8.2,3.1-11.3,0
		l-34.7-34.7c-3.1-3.1-3.1-8.2,0-11.3l17.9-17.9c-6-10.2-10.6-21.2-13.5-32.6h-25.4c-4.4,0-8-3.6-8-8v-49c0-4.4,3.6-8,8-8h25.4
		c3-11.5,7.5-22.4,13.5-32.6l-17.9-17.9c-3.1-3.1-3.1-8.2,0-11.3l34.7-34.7c1.5-1.5,3.5-2.3,5.7-2.3l0,0c2.1,0,4.2,0.8,5.7,2.3
		l18,18c10-5.8,21.2-10.5,32.6-13.5v-25.4c0-4.4,3.6-8,8-8h49c4.4,0,8,3.6,8,8v25.4c11.5,3,22.4,7.5,32.6,13.5l17.9-17.9
		c3.1-3.1,8.2-3.1,11.3,0l34.7,34.7c3.1,3.1,3.1,8.2,0,11.3l-17.9,17.9c6,10.2,10.6,21.2,13.5,32.6h25.4c4.4,0,8,3.6,8,8v49
		c0,4.4-3.6,8-8,8h-25.4c-3,11.5-7.5,22.4-13.5,32.6l17.9,17.9c1.5,1.5,2.3,3.5,2.3,5.7s-0.8,4.2-2.3,5.7l-34.7,34.7
		c-3.1,3.1-8.2,3.1-11.3,0l-17.9-17.9c-10.2,6-21.2,10.6-32.6,13.5v25.4C-1581.1,1563.3-1584.6,1566.8-1589.1,1566.8z
		 M-1630.1,1550.8h33v-23.7c0-3.8,2.7-7.1,6.4-7.8c13.9-2.9,27.1-8.3,39-16.2c3.2-2.1,7.4-1.7,10.1,1l16.8,16.8l23.3-23.3
		l-16.8-16.8c-2.7-2.7-3.1-6.9-1-10.1c7.9-11.9,13.3-25.1,16.2-39c0.8-3.7,4-6.4,7.8-6.4h23.7v-33h-23.7c-3.8,0-7.1-2.7-7.8-6.4
		c-2.9-13.9-8.3-27.1-16.2-39c-2.1-3.2-1.7-7.4,1-10.1l16.8-16.8l-23.3-23.3l-16.8,16.8c-2.7,2.7-6.9,3.1-10.1,1
		c-11.9-7.9-25.1-13.3-39-16.2c-3.7-0.8-6.4-4-6.4-7.8v-23.7h-33v23.7c0,3.8-2.6,7-6.3,7.8c-13.8,2.9-27.6,8.7-39.1,16.2
		c-3.2,2.1-7.4,1.7-10.1-1l-16.8-16.8l-23.3,23.3l16.8,16.8c2.7,2.7,3.1,6.9,1,10.1c-7.9,11.9-13.3,25.1-16.2,39
		c-0.8,3.7-4,6.4-7.8,6.4h-23.7v33h23.7c3.8,0,7.1,2.7,7.8,6.4c2.9,13.9,8.3,27.1,16.2,39c2.1,3.2,1.7,7.4-1,10.1l-16.8,16.8
		l23.3,23.3l16.8-16.8c2.7-2.7,6.9-3.1,10.1-1c11.8,7.8,22.8,12.3,39.3,16.2c3.6,0.9,6.1,4.1,6.1,7.8V1550.8z"/>
	<path class="st2" d="M-1617.2,1492.9c-26.2,0-51-11.5-67.9-31.5c-2.9-3.4-2.4-8.4,0.9-11.3c3.4-2.9,8.4-2.4,11.3,0.9
		c13.9,16.4,34.2,25.8,55.7,25.8c40.3,0,73-32.8,73-73c0-10.1-2-19.9-6-29.2c-1.8-4,0.1-8.8,4.1-10.5c4-1.8,8.8,0.1,10.5,4.1
		c4.9,11.2,7.4,23.2,7.4,35.5C-1528.1,1453-1568.1,1492.9-1617.2,1492.9z"/>
	<path class="st2" d="M-1542.9,1379.6c-3.1,0-6-1.8-7.3-4.8c-2.3-5.2-5.2-10.2-8.6-14.7c-2.7-3.5-2-8.5,1.6-11.2
		c3.5-2.7,8.5-1.9,11.2,1.6c4.2,5.6,7.7,11.6,10.5,17.9c1.8,4.1-0.1,8.8-4.1,10.5C-1540.7,1379.3-1541.8,1379.6-1542.9,1379.6z"/>
	<path class="st2" d="M-1613.6,1452.2c-23.9,0-43.4-19.4-43.4-43.4c0-23.9,19.4-43.4,43.4-43.4c23.9,0,43.4,19.4,43.4,43.4
		C-1570.2,1432.8-1589.7,1452.2-1613.6,1452.2z M-1613.6,1381.5c-15.1,0-27.4,12.3-27.4,27.4c0,15.1,12.3,27.4,27.4,27.4
		c15.1,0,27.4-12.3,27.4-27.4C-1586.2,1393.8-1598.5,1381.5-1613.6,1381.5z"/>
</g>
<image style="overflow:visible;" width="374" height="657" xlink:href="6A15BE2D.jpg"  transform="matrix(1 0 0 1 -7920.3066 -7968.5498)">
</image>
<path class="st0" d="M-265.2,13"/>
<g>
	<ellipse class="st1" cx="-1169.3" cy="116.8" rx="66.7" ry="65.5"/>
	<path class="st1" d="M-1313.7,351.3c-2.3,0-4.3-1.8-4.6-4.1c-0.7-5.7-1-11.6-1-17.5c0-81.4,67.2-147.4,150-147.4
		c82.8,0,150,66,150,147.4c0,5.9-0.4,11.8-1,17.5c-0.3,2.3-2.3,4.1-4.6,4.1H-1313.7z"/>
</g>
<g>
	<g>
		<ellipse class="st1" cx="-1617.7" cy="146.1" rx="33.3" ry="32.8"/>
		<path class="st1" d="M-1689.9,263.4c-1.2,0-2.2-0.9-2.3-2c-0.3-2.9-0.5-5.8-0.5-8.8c0-40.7,33.6-73.7,75-73.7
			c41.4,0,75,33,75,73.7c0,3-0.2,5.9-0.5,8.8c-0.1,1.2-1.1,2-2.3,2H-1689.9z"/>
	</g>
	<g>
		<path class="st2" d="M-1465.7,279.8l-2.3-63.6l-20.7,13.1h-0.6c0,0.1-0.1,0.3-0.1,0.4l-31.8,20.2l20.6,11.1
			c-21.5,42.3-65.1,71.4-115.3,71.4c-61.9,0-113.9-44.2-126.6-103.1h-18.9c13,69.3,73.3,121.9,145.5,121.9
			c57.3,0,107.1-33.1,131.7-81.4L-1465.7,279.8z"/>
		<path class="st2" d="M-1731.8,142.5c21.3-43,65.3-72.5,115.9-72.5c61.9,0,113.9,44.2,126.6,103.1h18.9
			c-13-69.3-73.3-121.9-145.5-121.9c-57.7,0-107.8,33.6-132.3,82.5l-17.5-9.4l2.3,63.6l53.2-33.8L-1731.8,142.5z"/>
	</g>
</g>
<g>
	<g>
		<ellipse class="st1" cx="-1993" cy="1806.2" rx="33.3" ry="32.8"/>
		<path class="st1" d="M-2065.2,1923.4c-1.2,0-2.2-0.9-2.3-2c-0.3-2.9-0.5-5.8-0.5-8.8c0-40.7,33.6-73.7,75-73.7s75,33,75,73.7
			c0,3-0.2,5.9-0.5,8.8c-0.1,1.2-1.1,2-2.3,2H-2065.2z"/>
	</g>
	<g>
		<path class="st2" d="M-1841,1939.8l-2.3-63.6l-20.7,13.1h-0.6c0,0.1-0.1,0.3-0.1,0.4l-31.8,20.2l20.6,11.1
			c-21.5,42.3-65.1,71.4-115.3,71.4c-61.9,0-113.9-44.2-126.6-103.1h-18.9c13,69.3,73.3,121.9,145.5,121.9
			c57.3,0,107.1-33.1,131.7-81.4L-1841,1939.8z"/>
		<path class="st2" d="M-2107.1,1802.5c21.3-43,65.3-72.5,115.9-72.5c61.9,0,113.9,44.2,126.6,103.1h18.9
			c-13-69.3-73.3-121.9-145.5-121.9c-57.7,0-107.8,33.6-132.3,82.5l-17.5-9.4l2.3,63.6l53.2-33.8L-2107.1,1802.5z"/>
	</g>
</g>
<g>
	<line class="st3" x1="-872.7" y1="91.8" x2="-573" y2="91.8"/>
	<line class="st3" x1="-872.7" y1="202" x2="-573" y2="202"/>
	<line class="st4" x1="-872.7" y1="312.3" x2="-573" y2="312.3"/>
	<rect x="-873" y="51.3" class="st5" width="299.7" height="300"/>
</g>
<g>
	<g>
		<path class="st1" d="M-2006.6,642.5c-6.2,0-12.3,2.2-17.3,6.3c-10.7,8.8-23.9,14-38.1,14s-27.4-5.2-38.1-14
			c-5-4.1-11.1-6.3-17.3-6.3h-10.6c-35.3,0-63.9,32.3-63.9,72.1v34.3c0,15.2,11,27.6,24.5,27.6h211.1c13.5,0,24.5-12.4,24.5-27.6
			v-34.3c0-39.8-28.6-72.1-63.9-72.1H-2006.6z"/>
		<ellipse class="st1" cx="-2062" cy="547.2" rx="71.1" ry="70.8"/>
	</g>
	<rect x="-2212" y="476.5" class="st5" width="300" height="300"/>
</g>
<g>
	<path class="st2" d="M249.9,301H52.1c-17.8,0-32.3-15.8-32.3-35.2v-32.2c0-42.4,31.1-77,69.3-77h10c8,0,15.9,2.9,22.2,8
		c8.7,7.2,19,11,29.8,11c10.7,0,21-3.8,29.8-11c6.3-5.2,14.2-8,22.2-8h10c38.2,0,69.3,34.5,69.3,77v32.2
		C282.3,285.2,267.8,301,249.9,301z M89.1,175.4c-27.9,0-50.6,26.1-50.6,58.2v32.2c0,9.1,6.1,16.5,13.6,16.5h197.9
		c7.5,0,13.6-7.4,13.6-16.5v-32.2c0-32.1-22.7-58.2-50.6-58.2h-10c-3.7,0-7.3,1.3-10.3,3.8c-12.1,10-26.6,15.2-41.7,15.2
		c-15.1,0-29.5-5.3-41.7-15.2c-3-2.5-6.6-3.8-10.3-3.8H89.1z"/>
	<path class="st2" d="M151,152.4c-41.9,0-76-34-76-75.7S109.1,1,151,1s76,34,76,75.7S192.9,152.4,151,152.4z M151,19.8
		c-31.6,0-57.2,25.6-57.2,57s25.7,57,57.2,57c31.6,0,57.2-25.6,57.2-57S182.6,19.8,151,19.8z"/>
</g>
<g>
	<g>
		<path class="st1" d="M-1496.8,607.5h-237.7c-6.1,0-11.1,5.4-11.1,12v145c0,6.6,5,12,11.1,12h237.7c6.1,0,11.1-5.4,11.1-12v-145
			C-1485.7,612.9-1490.7,607.5-1496.8,607.5z"/>
		<path class="st1" d="M-1698,606.1h164.7c1.5,0,2.7-1.2,2.7-2.7v-47.7c0-43.6-35.7-79.3-79.3-79.3h-11.4
			c-43.6,0-79.3,35.7-79.3,79.3v47.7C-1700.7,604.9-1699.5,606.1-1698,606.1z"/>
	</g>
	<circle class="st2" cx="-1615.7" cy="692" r="22.5"/>
</g>
<g>
	<g>
		<path class="st1" d="M-1078.2,1845h-237.7c-6.1,0-11.1,5.4-11.1,12v145c0,6.6,5,12,11.1,12h237.7c6.1,0,11.1-5.4,11.1-12v-145
			C-1067,1850.4-1072,1845-1078.2,1845z"/>
		<path class="st1" d="M-1279.4,1843.6h164.7c1.5,0,2.7-1.2,2.7-2.7v-47.7c0-43.6-35.7-79.3-79.3-79.3h-11.4
			c-43.6,0-79.3,35.7-79.3,79.3v47.7C-1282,1842.4-1280.8,1843.6-1279.4,1843.6z"/>
	</g>
	<circle class="st2" cx="-1197" cy="1929.5" r="22.5"/>
</g>
<rect x="-1765.7" y="476.5" class="st5" width="300" height="300"/>
<g>
	<g>
		<path class="st6" d="M-1134.9-156.9h-68.9c-5.8,0-10.6-4.7-10.6-10.6v-27.6c0-5.8,4.7-10.6,10.6-10.6h68.9
			c5.8,0,10.6,4.7,10.6,10.6v27.6C-1124.3-161.7-1129-156.9-1134.9-156.9z"/>
		<path class="st1" d="M-1078.4-279.5h-181.8v-9.7c0-16.6,13.4-30,30-30h121.8c16.6,0,30,13.4,30,30V-279.5z"/>
		<path class="st1" d="M-1214.4-180.8h-77.7c-4,0-7.3-3.3-7.3-7.3v-84.2c0-4,3.3-7.3,7.3-7.3h245.5c4,0,7.3,3.3,7.3,7.3v84.2
			c0,4-3.3,7.3-7.3,7.3h-77.7"/>
		<polyline class="st1" points="-1124.3,-180.4 -1056,-180.4 -1056,-59.2 -1282.6,-59.2 -1282.6,-180.4 -1214.4,-180.4 		"/>
	</g>
	<rect x="-1319.3" y="-339.2" class="st5" width="300" height="300"/>
</g>
<g>
	<g>
		<path class="st2" d="M-1181.9,1431.4h-68.9c-10.3,0-18.6-8.3-18.6-18.6v-27.6c0-10.3,8.3-18.6,18.6-18.6h68.9
			c10.3,0,18.6,8.3,18.6,18.6v27.6C-1163.3,1423.1-1171.6,1431.4-1181.9,1431.4z M-1250.8,1382.6c-1.4,0-2.6,1.2-2.6,2.6v27.6
			c0,1.4,1.2,2.6,2.6,2.6h68.9c1.4,0,2.6-1.2,2.6-2.6v-27.6c0-1.4-1.2-2.6-2.6-2.6H-1250.8z"/>
		<path class="st2" d="M-1125.4,1308.9h-181.8c-4.4,0-8-3.6-8-8v-9.7c0-21,17-38,38-38h121.8c21,0,38,17,38,38v9.7
			C-1117.4,1305.3-1121,1308.9-1125.4,1308.9z M-1299.3,1292.9h165.8v-1.7c0-12.1-9.9-22-22-22h-121.8c-12.1,0-22,9.9-22,22V1292.9z
			"/>
		<path class="st2" d="M-1093.6,1407.6h-77.7c-4.4,0-8-3.6-8-8s3.6-8,8-8h77v-82.7h-244v82.7h77c4.4,0,8,3.6,8,8s-3.6,8-8,8h-77.7
			c-8.4,0-15.3-6.8-15.3-15.3v-84.2c0-8.4,6.8-15.3,15.3-15.3h245.5c8.4,0,15.3,6.8,15.3,15.3v84.2
			C-1078.3,1400.8-1085.2,1407.6-1093.6,1407.6z"/>
		<path class="st2" d="M-1103,1529.2h-226.6c-4.4,0-8-3.6-8-8v-121.3c0-4.4,3.6-8,8-8h68.3c4.4,0,8,3.6,8,8s-3.6,8-8,8h-60.3v105.3
			h210.6v-105.3h-60.3c-4.4,0-8-3.6-8-8s3.6-8,8-8h68.3c4.4,0,8,3.6,8,8v121.3C-1095,1525.6-1098.6,1529.2-1103,1529.2z"/>
	</g>
	<rect x="-1366.3" y="1241.2" class="st5" width="300" height="300"/>
</g>
<g>
	<g>
		<path class="st2" d="M-744.4,1521c-10.8,0-23.8-5.3-35-15.4c0,0-1.6-1.5-3.5-3.3c-2.4-2.3-5.3-5-5.7-5.4c0,0,0,0-0.1-0.1
			l-40.3-37.7c-4.9-4.4-14.9-13.6-10.7-24.7l-4.9-4.6c-0.9,0.4-1.8,0.7-2.8,0.8c-2.8,0.5-7.2,0.3-11-1.8
			c-5.9-3.3-10.1-8.3-11.5-13.7c-1.2-4.4-0.6-8.9,1.7-12.7c0.3-0.5,0.7-1,1.1-1.4l25.3-26.5c0.4-0.4,0.9-0.8,1.4-1.1
			c3.7-2.5,8.2-3.3,12.6-2.4c5.5,1.2,10.7,5.1,14.3,10.7c2.3,3.6,2.7,8,2.4,10.9c-0.1,0.9-0.4,1.8-0.7,2.8l4.9,4.6
			c11-4.7,20.6,4.7,25.3,9.3l40,38.1c0,0,0,0,0.1,0c0.3,0.3,3,2.9,5.4,5.1c3.7,3.5,3.7,3.5,3.8,3.6c17,17,22.3,38.9,12.3,50.5
			c-0.2,0.4-0.5,0.7-0.8,1l-3.2,3.3l-3.1,3.3c-0.3,0.3-0.6,0.6-1,0.9C-732.3,1519.1-738,1521-744.4,1521z M-768.7,1493.7
			c12.6,11.3,26.2,13.3,29.7,9.7l0.2-0.2c0.2-0.2,0.5-0.4,0.7-0.6l2.4-2.6c0,0,0.1-0.1,0.1-0.1l2.5-2.5c0.2-0.2,0.4-0.5,0.6-0.7
			l0.2-0.2c3.5-3.7,0.7-17-11.2-28.9c-0.3-0.3-1.8-1.7-3.5-3.3c-3.9-3.7-5.1-4.8-5.5-5.2l0,0l-40-38.1c0,0-0.1-0.1-0.1-0.1
			c-4.5-4.4-6.6-5.7-7.7-6l-2.4,1.8c-3.1,2.4-7.5,2.1-10.3-0.6l-14.3-13.5c-1.6-1.5-2.5-3.7-2.5-5.9c0-2.2,1-4.3,2.6-5.8
			c0.1-0.1,0.3-0.3,0.4-0.5c0,0,0,0,0-0.1c-1.4-2.1-3-3.3-4-3.5c0,0-0.1,0-0.1,0l-23.2,24.3c0,0,0,0,0,0c0.3,1,1.5,2.5,3.8,3.8
			c0,0,0.1,0,0.1,0c0.2-0.2,0.5-0.3,0.6-0.5c1.4-1.7,3.5-2.7,5.7-2.9c2.2-0.1,4.4,0.7,6,2.2l14.3,13.6c2.9,2.7,3.3,7.1,1.1,10.3
			l-1.7,2.5c0.4,1.1,1.8,3.2,6.4,7.3c0,0,0.1,0.1,0.1,0.1l40.3,37.8l0,0c0.4,0.4,1.7,1.6,5.8,5.4
			C-770.4,1492.2-769,1493.4-768.7,1493.7z"/>
		<g>
			<path class="st2" d="M-856.2,1408c-2,0-3.9-0.7-5.5-2.2l-87.4-82.5c-3.2-3-3.4-8.1-0.3-11.3s8.1-3.4,11.3-0.3l87.4,82.5
				c3.2,3,3.4,8.1,0.3,11.3C-852,1407.1-854.1,1408-856.2,1408z"/>
			<path class="st2" d="M-841.8,1392.9c-2,0-3.9-0.7-5.5-2.2l-87.4-82.5c-3.2-3-3.4-8.1-0.3-11.3s8.1-3.4,11.3-0.3l87.4,82.5
				c3.2,3,3.4,8.1,0.3,11.3C-837.6,1392-839.7,1392.9-841.8,1392.9z"/>
		</g>
		<g>
			<path class="st2" d="M-955.8,1327.6c-2.4,0-4.8-1.1-6.3-3.1c-9.5-12.2-16.4-21.4-25.5-33.8c-2.3-3.1-2-7.4,0.7-10.2
				c1.4-1.5,2.9-3.1,4.4-4.6c1.5-1.6,3-3.2,4.4-4.7c3-3.2,8.1-3.3,11.3-0.3c3.2,3,3.3,8.1,0.3,11.3c-1.4,1.5-2.8,3-4.2,4.5
				c6.3,8.5,11.7,15.7,18.3,24.2c0.4-0.1,0.8-0.2,1.2-0.2c1.9-0.4,3.7-0.7,6.1-1.1c4.3-0.8,8.5,2.1,9.3,6.4c0.8,4.3-2.1,8.5-6.4,9.3
				c-2.3,0.4-4.2,0.8-6,1.1c-1.9,0.4-3.7,0.7-6.1,1.1C-954.8,1327.6-955.3,1327.6-955.8,1327.6z"/>
			<path class="st2" d="M-929.3,1310.3c-0.3,0-0.7,0-1-0.1c-4.4-0.6-7.5-4.6-6.9-9c0.3-2.4,0.6-4.3,0.8-6.1c0.1-0.4,0.1-0.8,0.2-1.2
				c-8.9-6.1-16.4-11.2-25.3-16.9c-1.5,1.5-2.9,3-4.3,4.5c-3.1,3.2-8.1,3.3-11.3,0.3c-3.2-3-3.3-8.1-0.3-11.3c1.4-1.5,2.9-3,4.4-4.6
				c1.5-1.6,3-3.2,4.5-4.7c2.7-2.8,6.9-3.3,10.1-1.2c13,8.4,22.5,14.8,35.3,23.6c2.5,1.7,3.8,4.6,3.4,7.6c-0.3,2.4-0.6,4.3-0.8,6.2
				c-0.3,1.8-0.5,3.6-0.8,6C-921.9,1307.3-925.3,1310.3-929.3,1310.3z"/>
		</g>
		<path class="st2" d="M-756.1,1488.8c-1.9,0-3.9-0.7-5.4-2.1l-43.5-40.3c-3.2-3-3.4-8.1-0.4-11.3c3-3.2,8.1-3.4,11.3-0.4l43.5,40.3
			c3.2,3,3.4,8.1,0.4,11.3C-751.8,1487.9-754,1488.8-756.1,1488.8z"/>
		<g>
			<g>
				<path class="st2" d="M-835.8,1356.3c-2,0-3.9-0.7-5.5-2.1c-3.2-3-3.4-8.1-0.4-11.3c2.8-3,5.2-5.7,7.7-8.6c1-1.2,2.1-2.4,3.2-3.6
					c-12.9-16.1-15.1-29.9-7.3-44c7.9-14.1,27.5-31.3,75.9-33.5c3.3-0.1,6.3,1.7,7.7,4.7c1.3,3,0.7,6.5-1.5,8.8
					c-4.5,4.7-9.4,9.7-14.2,14.7c-2.8,2.9-5.5,5.7-8.2,8.5c1.7,1.6,3.5,3.2,5.3,4.9c4,3.7,8,7.4,11.2,10.4c3.2,3,3.4,8.1,0.4,11.3
					c-3,3.2-8.1,3.4-11.3,0.4c-3.2-3-7.2-6.7-11.2-10.4c-4-3.7-8-7.4-11.2-10.4c-1.6-1.5-2.5-3.5-2.6-5.7c-0.1-2.2,0.8-4.2,2.2-5.8
					c4.1-4.2,8.4-8.7,12.8-13.3c-27,4.9-37.3,16-41.2,23c-3.5,6.3-5.7,13.9,9.9,30.9c2.8,3.1,2.8,7.8,0,10.9c-2.8,3-5.2,5.7-7.7,8.6
					c-2.5,2.8-5,5.7-8,8.9C-831.5,1355.4-833.6,1356.3-835.8,1356.3z"/>
			</g>
			<g>
				<path class="st2" d="M-761.3,1380.4c-8.1,0-16.8-3.3-26.5-9.9c-0.4,0.4-1.2,1.2-2.7,2.8c-3,3.2-8.1,3.4-11.3,0.4
					c-3.2-3-3.4-8.1-0.4-11.3c3-3.2,3.6-3.8,4.4-4.5c0.3-0.2,0.6-0.6,3.3-3.4c2.8-3,7.5-3.4,10.8-0.8c18.1,14.2,25.6,11.5,31.7,7.5
					c6.7-4.4,17.1-15.5,20-42.6c-4.3,4.7-8.5,9.4-12.4,13.8c-1.4,1.6-3.4,2.5-5.6,2.6c-2.1,0.1-4.2-0.7-5.8-2.1
					c-3.2-3-7.2-6.7-11.3-10.4c-4-3.7-8-7.4-11.3-10.4c-3.2-3-3.4-8.1-0.4-11.3c3-3.2,8.1-3.4,11.3-0.4c3.2,3,7.2,6.7,11.3,10.4
					c1.8,1.7,3.6,3.3,5.3,4.9c2.7-3,5.4-6,8.1-9c4.6-5.1,9.3-10.3,13.5-15c2.2-2.4,5.6-3.3,8.7-2.2c3.1,1.1,5.1,4,5.2,7.3
					c1.4,48.3-14.4,69-28,77.9C-749.1,1378.4-755,1380.4-761.3,1380.4z"/>
			</g>
		</g>
		<path class="st2" d="M-934.9,1529.2c-14.8,0-29.6-5.8-40.6-17.3c-10.3-10.8-15.8-25-15.5-39.9c0.3-14.9,6.5-28.8,17.4-39.1
			c14.2-13.5,34.1-18.5,52.8-13.6l18.7-17.2c3.3-3,8.3-2.8,11.3,0.5c3,3.3,2.8,8.3-0.5,11.3l-22.1,20.3c-2.2,2-5.3,2.6-8.1,1.7
			c-14.4-5.1-30.2-1.8-41.2,8.7c-7.7,7.4-12.1,17.3-12.4,27.9c-0.2,10.6,3.7,20.7,11.1,28.4c15.3,15.9,40.7,16.5,56.7,1.3
			c10.7-10.2,14.9-25.4,10.9-39.6c-0.8-2.9,0.1-6.1,2.3-8.1l16.9-15.3c3.3-3,8.3-2.7,11.3,0.6c3,3.3,2.7,8.3-0.6,11.3l-13.4,12.2
			c3.4,18.5-2.6,37.5-16.4,50.6C-907.1,1524.1-921,1529.2-934.9,1529.2z"/>
		<path class="st2" d="M-943.5,1503.1c-2.2,0-4.2-0.9-5.8-2.5l-14.4-15.1c-2-2.1-2.7-5-1.9-7.8l5.9-20c0.8-2.7,3-4.8,5.8-5.5
			l20.3-4.9c2.8-0.7,5.7,0.2,7.7,2.2l14.4,15.1c2,2.1,2.7,5,1.9,7.8l-5.9,20c-0.8,2.7-3,4.8-5.8,5.5l-20.3,4.9
			C-942.2,1503-942.9,1503.1-943.5,1503.1z M-923.2,1490.2L-923.2,1490.2L-923.2,1490.2z M-948.9,1477.9l8,8.4l11.3-2.7l3.3-11.1
			l-8-8.4l-11.3,2.7L-948.9,1477.9z"/>
	</g>
	<rect x="-1003" y="1241.2" class="st5" width="300" height="300"/>
</g>
<g>
	<g>
		<path class="st1" d="M-2084.6,218.9c-9.7-84.9-29.8-92.7-48.4-87.3c-5.7,1.6-38.6,1.3-6.3,116c0.6,2.2,2.4,3.8,4.7,3.8h122.2
			c7.8,0,14.8,4.6,17.8,11.8c12.4,29.2,24.8,58.5,37.2,87.7"/>
		<path class="st1" d="M-2148,291.9c-6.7,21.9-12.1,37.4-18.8,59.4"/>
		<path class="st1" d="M-2052.8,254.2c3.8,0.9,10.7,8.7,16.2,13.4c3.5,3,5.5,7.3,5.6,11.9c0.3,28.8-0.7,40.5-0.2,71.5"/>
		<circle class="st1" cx="-2134.6" cy="76.8" r="25.5"/>
	</g>
	<rect x="-2212" y="51.3" class="st5" width="300" height="300"/>
</g>
<g>
	<g>
		<path class="st2" d="M-404.6,1566.5c-3.1,0-6.1-1.8-7.4-4.9l-37.2-87.7c-1.8-4.2-5.9-6.9-10.5-6.9h-122.2
			c-5.8,0-10.8-3.9-12.4-9.7c-16.2-57.5-18.6-94.3-7.5-112.8c6.2-10.3,14.9-12.1,18.6-12.9c0.3-0.1,0.5-0.1,0.7-0.2
			c10.2-2.9,18.9-1.9,26.5,3.2c15.9,10.6,26.1,39.5,32,90.9c0.5,4.4-2.6,8.4-7,8.9c-4.4,0.5-8.4-2.6-8.9-7
			c-6.4-56.2-17.1-74.2-25-79.4c-3.6-2.4-7.6-2.7-13.2-1.1c-0.5,0.1-1.1,0.3-1.8,0.4c-2.5,0.5-5.6,1.2-8.2,5.6
			c-4.8,7.9-10,31.2,8.6,98.2h119.8c11,0,20.9,6.5,25.2,16.7l37.2,87.7c1.7,4.1-0.2,8.8-4.2,10.5
			C-402.5,1566.3-403.5,1566.5-404.6,1566.5z"/>
		<path class="st2" d="M-614.1,1566.9c-0.8,0-1.6-0.1-2.3-0.3c-4.2-1.3-6.6-5.8-5.3-10c3.4-11,6.4-20.6,9.4-29.8
			c3-9.2,6-18.6,9.4-29.5c1.3-4.2,5.8-6.6,10-5.3c4.2,1.3,6.6,5.8,5.3,10c-3.4,11-6.4,20.6-9.4,29.8c-3,9.2-6,18.6-9.3,29.5
			C-607.5,1564.6-610.6,1566.9-614.1,1566.9z"/>
		<path class="st2" d="M-478.6,1566.5c-4.4,0-7.9-3.5-8-7.9c-0.3-16.9-0.1-28.3,0-39.4c0.1-9.4,0.3-19.1,0.2-32.2
			c0-2.2-1-4.4-2.7-5.9c-1.9-1.6-3.8-3.4-5.7-5.2c-2.3-2.2-6-5.7-7.6-6.6c-4.1-1.2-6.5-5.4-5.5-9.6c1-4.3,5.4-6.9,9.7-5.9
			c4.7,1.1,9.2,5.4,14.5,10.4c1.8,1.7,3.5,3.3,5,4.7c5.3,4.5,8.3,11,8.4,17.9c0.1,13.3,0,23.1-0.2,32.6c-0.2,11.4-0.3,22.3,0,38.9
			c0.1,4.4-3.5,8.1-7.9,8.1C-478.5,1566.5-478.5,1566.5-478.6,1566.5z M-502,1469.5C-502,1469.5-502,1469.5-502,1469.5
			C-502,1469.5-502,1469.5-502,1469.5z"/>
		<path class="st2" d="M-581.9,1317.9c-18.5,0-33.5-15-33.5-33.5c0-18.5,15-33.5,33.5-33.5c18.5,0,33.5,15,33.5,33.5
			C-548.4,1302.9-563.4,1317.9-581.9,1317.9z M-581.9,1266.8c-9.7,0-17.5,7.9-17.5,17.5c0,9.7,7.9,17.5,17.5,17.5
			c9.7,0,17.5-7.9,17.5-17.5C-564.4,1274.7-572.2,1266.8-581.9,1266.8z"/>
	</g>
	<rect x="-659.3" y="1258.8" class="st5" width="300" height="300"/>
</g>
<g>
	<g>
		<path class="st7" d="M-1061.8,548.3h-250.5c-8.2,0-14.8-6.6-14.8-14.8v-42.3c0-8.2,6.6-14.8,14.8-14.8h250.5
			c8.2,0,14.8,6.6,14.8,14.8v42.3C-1047,541.7-1053.6,548.3-1061.8,548.3z"/>
		<path class="st7" d="M-1061.8,662.4h-250.5c-8.2,0-14.8-6.6-14.8-14.8v-42.3c0-8.2,6.6-14.8,14.8-14.8h250.5
			c8.2,0,14.8,6.6,14.8,14.8v42.3C-1047,655.8-1053.6,662.4-1061.8,662.4z"/>
		<path class="st7" d="M-1061.8,776.5h-250.5c-8.2,0-14.8-6.6-14.8-14.8v-42.3c0-8.2,6.6-14.8,14.8-14.8h250.5
			c8.2,0,14.8,6.6,14.8,14.8v42.3C-1047,769.9-1053.6,776.5-1061.8,776.5z"/>
		<g>
			<circle class="st2" cx="-1286.7" cy="512.4" r="10"/>
			<circle class="st2" cx="-1250.1" cy="512.4" r="10"/>
		</g>
		<g>
			<circle class="st2" cx="-1286.7" cy="626.5" r="10"/>
			<circle class="st2" cx="-1250.1" cy="626.5" r="10"/>
		</g>
		<g>
			<circle class="st2" cx="-1286.7" cy="740.6" r="10"/>
			<circle class="st2" cx="-1250.1" cy="740.6" r="10"/>
		</g>
	</g>
	<rect x="-1337" y="476.5" class="st5" width="300" height="300"/>
</g>
<g>
	<g>
		<path class="st7" d="M-708.6,1785.8h-250.5c-8.2,0-14.8-6.6-14.8-14.8v-42.3c0-8.2,6.6-14.8,14.8-14.8h250.5
			c8.2,0,14.8,6.6,14.8,14.8v42.3C-693.8,1779.2-700.5,1785.8-708.6,1785.8z"/>
		<path class="st7" d="M-708.6,1899.9h-250.5c-8.2,0-14.8-6.6-14.8-14.8v-42.3c0-8.2,6.6-14.8,14.8-14.8h250.5
			c8.2,0,14.8,6.6,14.8,14.8v42.3C-693.8,1893.3-700.5,1899.9-708.6,1899.9z"/>
		<path class="st7" d="M-708.6,2014h-250.5c-8.2,0-14.8-6.6-14.8-14.8v-42.3c0-8.2,6.6-14.8,14.8-14.8h250.5
			c8.2,0,14.8,6.6,14.8,14.8v42.3C-693.8,2007.4-700.5,2014-708.6,2014z"/>
		<g>
			<circle class="st2" cx="-933.5" cy="1749.9" r="10"/>
			<circle class="st2" cx="-896.9" cy="1749.9" r="10"/>
		</g>
		<g>
			<circle class="st2" cx="-933.5" cy="1864" r="10"/>
			<circle class="st2" cx="-896.9" cy="1864" r="10"/>
		</g>
		<g>
			<circle class="st2" cx="-933.5" cy="1978.1" r="10"/>
			<circle class="st2" cx="-896.9" cy="1978.1" r="10"/>
		</g>
	</g>
	<rect x="-983.8" y="1714" class="st5" width="300" height="300"/>
</g>
<g>
	<circle class="st8" cx="-731.5" cy="562.4" r="25"/>
	<path class="st8" d="M-669.1,620.3l9.8-120.3c0.5-5.6-4.2-10.2-9.8-9.8l-120.3,9.8l0,0l-129.6,129.6c-9.9,9.9-9.9,25.8,0,35.7
		l84.6,84.6c9.9,9.9,25.8,9.9,35.7,0L-669.1,620.3L-669.1,620.3z"/>
	<rect x="-945.6" y="476.5" class="st5" width="300" height="300"/>
</g>
<g>
	<circle class="st8" cx="-438.5" cy="1817.1" r="25"/>
	<path class="st8" d="M-376.1,1875l9.8-120.3c0.5-5.6-4.2-10.2-9.8-9.8l-120.3,9.8l0,0l-129.6,129.6c-9.9,9.9-9.9,25.8,0,35.7
		l84.6,84.6c9.9,9.9,25.8,9.9,35.7,0L-376.1,1875L-376.1,1875z"/>
	<rect x="-652.6" y="1731.2" class="st5" width="300" height="300"/>
</g>
<g>
	<g>
		<g>
			<path class="st2" d="M-2126.1,1074.9h-22c-2.1,0-3.9-1.7-3.9-3.9V938.9c0-2.1,1.7-3.9,3.9-3.9h22c2.1,0,3.9,1.7,3.9,3.9V1071
				C-2122.2,1073.1-2123.9,1074.9-2126.1,1074.9z"/>
			<path class="st2" d="M-2087.4,1074.9h-11.1c-2.1,0-3.9-1.7-3.9-3.9V938.9c0-2.1,1.7-3.9,3.9-3.9h11.1c2.1,0,3.9,1.7,3.9,3.9V1071
				C-2083.6,1073.1-2085.3,1074.9-2087.4,1074.9z"/>
			<path class="st2" d="M-2046.6,1074.9h-4.5c-2.1,0-3.9-1.7-3.9-3.9V938.9c0-2.1,1.7-3.9,3.9-3.9h4.5c2.1,0,3.9,1.7,3.9,3.9V1071
				C-2042.8,1073.1-2044.5,1074.9-2046.6,1074.9z"/>
			<path class="st2" d="M-1953.3,1074.9h-14.9c-2.1,0-3.9-1.7-3.9-3.9V938.9c0-2.1,1.7-3.9,3.9-3.9h14.9c2.1,0,3.9,1.7,3.9,3.9V1071
				C-1949.4,1073.1-1951.2,1074.9-1953.3,1074.9z"/>
			<path class="st2" d="M-1993.8,1074.9h-22c-2.1,0-3.9-1.7-3.9-3.9V938.9c0-2.1,1.7-3.9,3.9-3.9h22c2.1,0,3.9,1.7,3.9,3.9V1071
				C-1990,1073.1-1991.7,1074.9-1993.8,1074.9z"/>
		</g>
		<g>
			<path class="st2" d="M-1966.3,903.4h42.1c2.6,0,4.8,2.1,4.8,4.7v41.4h18.8v-41.4c0-12.8-10.6-23.2-23.5-23.2h-42.1V903.4z"/>
			<path class="st2" d="M-2181.9,949.6v-41.4c0-2.6,2.2-4.7,4.8-4.7h42.1v-18.5h-42.1c-13,0-23.5,10.4-23.5,23.2v41.4H-2181.9z"/>
			<path class="st2" d="M-1919.4,1060.3v41.4c0,2.6-2.1,4.7-4.8,4.7h-42.1v18.5h42.1c13,0,23.5-10.4,23.5-23.2v-41.4H-1919.4z"/>
			<path class="st2" d="M-2135.1,1106.5h-42.1c-2.6,0-4.8-2.1-4.8-4.7v-41.4h-18.8v41.4c0,12.8,10.6,23.2,23.5,23.2h42.1V1106.5z"/>
		</g>
	</g>
	<rect x="-2200.7" y="854.9" class="st5" width="300" height="300"/>
</g>
<g>
	<path class="st9" d="M-1638.2,1145c-82.7,0-150-67.3-150-150s67.3-150,150-150c82.7,0,150,67.3,150,150S-1555.5,1145-1638.2,1145z
		 M-1638.2,865.3c-71.5,0-129.7,58.2-129.7,129.7s58.2,129.7,129.7,129.7c71.5,0,129.7-58.2,129.7-129.7S-1566.7,865.3-1638.2,865.3
		z"/>
	<path class="st9" d="M-1656.8,1051.6c-2.4,0-4.8-1-6.5-2.8l-37.6-39.2c-3.4-3.6-3.3-9.3,0.3-12.7c3.6-3.4,9.3-3.3,12.7,0.3
		l30.4,31.7l68.4-87.2c3.1-3.9,8.7-4.6,12.6-1.5c3.9,3.1,4.6,8.7,1.5,12.6l-74.7,95.3c-1.6,2-4,3.3-6.6,3.4
		C-1656.5,1051.6-1656.6,1051.6-1656.8,1051.6z"/>
</g>
<g>
	<polyline class="st10" points="-1257.3,1004.1 -1217,1046.1 -1136.8,943.9 	"/>
	<g>
		<path class="st11" d="M-1256.1,855.7l10.3,17.9c9.4-3.8,19.2-6.4,29.5-7.9V845C-1230.3,846.8-1243.6,850.4-1256.1,855.7z"/>
		<path class="st11" d="M-1326.5,1013.8h-20.5c1.7,14,5.4,27.4,10.7,39.9l17.8-10.3C-1322.3,1034.1-1325,1024.1-1326.5,1013.8z"/>
		<path class="st11" d="M-1318.6,946.6l-17.8-10.3c-5.3,12.5-8.9,25.9-10.7,39.9h20.5C-1325,965.9-1322.3,956-1318.6,946.6z"/>
		<path class="st11" d="M-1178.9,845v20.6c60.3,8.8,107.3,59.1,111.2,121.1c1.2,2.5,2,5.3,2,8.3s-0.7,5.8-2,8.3
			c-3.9,61.9-50.9,112.3-111.2,121.1v20.6c74.2-9.3,131.9-73,131.9-150S-1104.7,854.3-1178.9,845z"/>
		<path class="st11" d="M-1216.3,1145v-20.6c-10.3-1.5-20.2-4.2-29.5-7.9l-10.3,17.9C-1243.6,1139.6-1230.3,1143.3-1216.3,1145z"/>
		<path class="st11" d="M-1278.2,1097.6c-8-6.4-15.2-13.6-21.6-21.7l-17.8,10.3c8.3,11,18.1,20.8,29.1,29.2L-1278.2,1097.6z"/>
		<path class="st11" d="M-1299.8,914.1c6.3-8,13.6-15.3,21.6-21.7l-10.3-17.9c-11,8.4-20.8,18.2-29.1,29.2L-1299.8,914.1z"/>
	</g>
</g>
</svg>
